<svg xmlns="http://www.w3.org/2000/svg" viewBox="0 0 512 512">
  <rect width="512" height="512" rx="96" fill="#4A6741"/>

  <path
    fill="#ffffff"
    d="
      M155 95
      C155 72 172 56 196 56
      H360
      C385 56 400 70 400 93
      C400 151 375 198 325 208
      H258
      V264
      H314
      C347 264 368 281 368 312
      C368 353 336 382 292 382
      H258
      V390
      C258 437 229 472 183 480

      L194 279

      C195 257 188 241 172 224
      C161 213 155 198 155 180

      Z
    "
  />

  <!-- Fork cutouts -->
  <rect x="182" y="94" width="10" height="84" rx="5" fill="#4A6741"/>
  <rect x="203" y="94" width="10" height="84" rx="5" fill="#4A6741"/>
  <rect x="224" y="94" width="10" height="84" rx="5" fill="#4A6741"/>
</svg>
